<?xml version="1.0" encoding="UTF-8" standalone="no"?>
<!-- Created with Inkscape (http://www.inkscape.org/) -->

<svg
   width="40.000122mm"
   height="40.000145mm"
   viewBox="0 0 40.000122 40.000145"
   version="1.1"
   id="svg547"
   inkscape:version="1.2.2 (b0a8486541, 2022-12-01)"
   sodipodi:docname="external-link.svg"
   xmlns:inkscape="http://www.inkscape.org/namespaces/inkscape"
   xmlns:sodipodi="http://sodipodi.sourceforge.net/DTD/sodipodi-0.dtd"
   xmlns="http://www.w3.org/2000/svg"
   xmlns:svg="http://www.w3.org/2000/svg">
  <sodipodi:namedview
     id="namedview549"
     pagecolor="#ffffff"
     bordercolor="#000000"
     borderopacity="0.25"
     inkscape:showpageshadow="2"
     inkscape:pageopacity="0.0"
     inkscape:pagecheckerboard="0"
     inkscape:deskcolor="#d1d1d1"
     inkscape:document-units="mm"
     showgrid="false"
     inkscape:zoom="3.5183284"
     inkscape:cx="25.58033"
     inkscape:cy="93.083978"
     inkscape:window-width="3380"
     inkscape:window-height="1320"
     inkscape:window-x="30"
     inkscape:window-y="50"
     inkscape:window-maximized="1"
     inkscape:current-layer="layer1" />
  <defs
     id="defs544" />
  <g
     inkscape:label="Layer 1"
     inkscape:groupmode="layer"
     id="layer1"
     transform="translate(-73.993996,-76.527626)">
    <g
       id="g1217">
      <path
         id="rect955"
         style="fill:#000000;stroke:none;stroke-width:0.244795"
         d="m 78.984389,78.527504 c -2.764628,0 -4.990393,2.225765 -4.990393,4.990393 v 28.019483 c 0,2.76462 2.225765,4.99039 4.990393,4.99039 h 28.019481 c 2.76462,0 4.99039,-2.22577 4.99039,-4.99039 v -10.99933 h -4.00027 v 8.95862 c 0,1.67913 -1.35171,3.03083 -3.03082,3.03083 H 81.025091 c -1.679125,0 -3.030822,-1.3517 -3.030822,-3.03083 V 85.558599 c 0,-1.679125 1.351697,-3.030822 3.030822,-3.030822 h 8.958627 v -4.000273 z" />
      <rect
         style="fill:#000000;stroke:none;stroke-width:0.275968"
         id="rect788"
         width="26"
         height="4"
         x="-2.6952648"
         y="132.71922"
         transform="rotate(-45)" />
      <rect
         style="fill:#000000;stroke:none;stroke-width:0.323997"
         id="rect788-2-9"
         width="14"
         height="4"
         x="-113.99412"
         y="-80.527626"
         transform="scale(-1)" />
      <rect
         style="fill:#000000;stroke:none;stroke-width:0.323997"
         id="rect788-2"
         width="14"
         height="4"
         x="-90.527641"
         y="109.99412"
         transform="rotate(-90)" />
    </g>
  </g>
</svg>
